HIERARCHY
ROOT pelvis
{
  OFFSET 0 100 0
  CHANNELS 6 Xposition Yposition Zposition Zrotation Xrotation Yrotation
  JOINT pelvis_right_femur
  {
    OFFSET -10.78128 -3.44521 -0.5502486
    CHANNELS 3 Zrotation Xrotation Yrotation
    JOINT right_femur_tibia
    {
      OFFSET -0.8047443 -44.0398 -0.1307829
      CHANNELS 3 Zrotation Xrotation Yrotation
      JOINT right_tibia_foot
      {
        OFFSET 3.006224 -47.83518 -5
        CHANNELS 3 Zrotation Xrotation Yrotation
        End Site
        {
          OFFSET 0 -5 15
        }
      }
    }
  }
  JOINT pelvis_left_femur
  {
    OFFSET 10.78128 -3.44521 -0.5502486
    CHANNELS 3 Zrotation Xrotation Yrotation
    JOINT left_femur_tibia
    {
      OFFSET 0.8047443 -44.0398 -0.1307829
      CHANNELS 3 Zrotation Xrotation Yrotation
      JOINT left_tibia_foot
      {
        OFFSET -4.370144 -48.10324 -4.275266
        CHANNELS 3 Zrotation Xrotation Yrotation
        End Site
        {
          OFFSET 0 -5 15
        }
      }
    }
  }
  JOINT pelvis_spine1
  {
    OFFSET 0 6.468898 -3.129235
    CHANNELS 3 Zrotation Xrotation Yrotation
    JOINT spine1
    {
      OFFSET 0 23.15396 4.99043
      CHANNELS 3 Zrotation Xrotation Yrotation
      JOINT spine2
      {
        OFFSET 0 20.79997 -5.064912
        CHANNELS 3 Zrotation Xrotation Yrotation
        JOINT neck
        {
          OFFSET 0 14.38658 9.616178
          CHANNELS 3 Zrotation Xrotation Yrotation
          End Site
          {
            OFFSET 0 20 0
          }
        }
      }
      JOINT right_manubrium
      {
        OFFSET -5.722621 16.35077 3.967754
        CHANNELS 3 Zrotation Xrotation Yrotation
        JOINT right_clavicle
        {
          OFFSET -13.16364 1.694482 -4.693211
          CHANNELS 3 Zrotation Xrotation Yrotation
          JOINT right_humerus
          {
            OFFSET -28.5034 -0.3100689 -2.792744
            CHANNELS 3 Zrotation Xrotation Yrotation
            JOINT right_radius
            {
              OFFSET -25.15693 0.02248979 -1.271978
              CHANNELS 3 Zrotation Xrotation Yrotation
              End Site
              {
                OFFSET -15 0 0
              }
            }
          }
        }
      }
      JOINT left_manubrium
      {
        OFFSET 5.722621 16.35077 3.967754
        CHANNELS 3 Zrotation Xrotation Yrotation
        JOINT left_clavicle
        {
          OFFSET 13.16364 1.694482 -4.693211
          CHANNELS 3 Zrotation Xrotation Yrotation
          JOINT left_humerus
          {
            OFFSET 29.39168 -1.063119 -2.237045
            CHANNELS 3 Zrotation Xrotation Yrotation
            JOINT left_radius
            {
              OFFSET 24.59957 -0.9528479 0.9047498
              CHANNELS 3 Zrotation Xrotation Yrotation
              End Site
              {
                OFFSET 15 -0 -0
              }
            }
          }
        }
      }
    }
  }
}
MOTION
Frames: 21
Frame Time: 0.0416666666667
0 103.5113 0 2.115371 -1.742726 0.07300395 2.019757 -11.91273 9.25922 -0 37.80178 -0 -4.106927 -17.99595 -4.153683 -7.674351 11.69068 -24.09089 -0 4.142435 -0 8.326062 -16.14282 27.37246 -1.310439 -2.863515 5.749093 1.880103 9.291883 -7.067444 1.638185 21.64283 6.155574 2.85979 -26.35215 9.698023 5.748376 -19.39789 10.30039 85.42969 34.91152 -19.12509 -0 0 16.28151 -5.560811 7.095969 3.146607 6.692457 -21.22141 -0.6498732 -96.49138 27.57997 25.59939 0 0 -14.76159 10.31707 18.12316 3.678139
0.2662194 103.4191 1.335221 1.895993 -1.395641 0.06600046 2.308049 -12.81013 9.324444 -0 37.32496 -0 -4.223458 -17.60504 -4.154747 -7.540642 11.54179 -24.01817 -0 4.233334 -0 7.632005 -16.82389 27.08375 -1.318883 -2.88627 5.841546 1.734411 9.200317 -6.927511 1.688071 21.78383 6.021359 2.787294 -26.19577 9.657789 5.694325 -19.44332 10.17112 85.16956 35.02503 -18.6976 -0 0 16.52687 -5.652486 7.037746 3.183622 6.651398 -21.13986 -0.588044 -96.66259 27.86765 25.85394 0 0 -14.41797 10.2279 18.45172 3.810288
0.5456982 103.1835 3.11947 1.092977 -0.5823715 0.07218265 3.357702 -17.89189 7.7069 -0 33.11055 -0 -5.389457 -14.04167 -3.443993 -6.966649 11.85387 -22.2496 -0 4.900831 -0 5.726198 -19.23048 24.81709 -1.34169 -2.641301 5.551495 2.144584 9.710016 -7.418135 1.412733 21.26264 6.420153 3.108771 -26.15375 9.338844 5.85539 -19.15683 10.74544 86.02745 34.76734 -19.91043 -0 0 15.37957 -6.55915 7.768821 3.785521 6.660777 -21.51522 -0.9252483 -95.3289 26.44528 24.30486 0 0 -15.87579 9.988451 16.61225 3.82992
0.8291613 102.817 5.189255 0.5996944 0.3025894 0.1455297 4.11225 -21.58149 7.204223 -0 30.04608 -0 -5.793237 -12.00878 -3.119689 -6.697206 11.97863 -21.27343 -0 5.115605 -0 5.015581 -20.72458 23.73925 -1.299669 -2.494415 5.351355 2.410943 9.990262 -7.795898 1.245402 20.90736 6.677878 3.328357 -26.25127 9.15462 5.881223 -18.98572 11.05156 86.76322 34.51514 -20.98272 -0 0 14.59747 -6.957399 8.118858 4.022439 6.746315 -21.90975 -1.195137 -94.55935 25.92928 23.36516 0 0 -17.31336 9.746991 15.50379 4.125368
1.11248 102.2962 7.60054 0.2032569 1.235758 0.2959738 4.787273 -25.24103 6.747741 -0 26.57285 -0 -6.04592 -9.97551 -2.782189 -6.502988 12.27283 -20.23687 -0 5.361371 -0 4.755165 -21.92534 22.76044 -1.282322 -2.364155 5.146796 2.659725 10.21415 -8.132034 1.102342 20.59058 6.918283 3.516839 -26.34127 9.019459 5.879353 -18.81309 11.3171 87.42142 34.31968 -21.90881 -0 0 13.86116 -7.322324 8.433441 4.257544 6.824733 -22.24728 -1.429384 -93.79316 25.40041 22.41539 0 0 -18.64752 9.626292 14.4846 4.256063
1.38712 101.6318 10.38921 -0.1369403 2.207723 0.5339933 5.418236 -28.59701 6.452121 -0 23.11236 -0 -6.17492 -8.095694 -2.469712 -6.345283 12.67606 -19.27597 -0 5.796076 -0 4.675799 -22.80144 21.87061 -1.249496 -2.269682 4.970087 2.867748 10.37184 -8.433095 0.9862176 20.31364 7.129024 3.681011 -26.47718 8.928906 5.839298 -18.67889 11.51022 88.04302 34.14424 -22.78952 -0 0 13.23311 -7.552521 8.639556 4.40035 6.930532 -22.59445 -1.639505 -93.17259 25.09732 21.63489 0 0 -19.98227 9.525276 13.66033 4.444325
1.643596 100.854 13.61684 -0.4749861 3.169874 0.8705315 6.038322 -31.60131 6.242259 -0 19.81788 -0 -6.271151 -6.251928 -2.145336 -6.169619 13.20056 -18.32807 -0 6.660358 -0 4.537866 -23.29808 20.89344 -1.22231 -2.196859 4.820766 3.033637 10.48525 -8.681548 0.8925336 20.08461 7.304897 3.816582 -26.59499 8.861038 5.784567 -18.56738 11.65547 88.57173 34.01204 -23.52512 -0 0 12.70791 -7.747601 8.796755 4.522238 7.030443 -22.89941 -1.814963 -92.6413 24.87473 20.96796 0 0 -21.16157 9.453613 12.98173 4.606995
1.872959 100.0228 17.35598 -0.8676613 4.081291 1.314891 6.696851 -34.10346 6.135129 -0 16.98592 -0 -6.396723 -4.454484 -1.803595 -5.923991 13.80511 -17.39379 -0 8.214626 -0 4.108167 -23.30592 19.70429 -1.196123 -2.142847 4.70716 3.152392 10.56654 -8.875082 0.8195639 19.90641 7.439755 3.924304 -26.68113 8.802362 5.727936 -18.48104 11.75767 88.99915 33.91281 -24.11226 -0 0 12.29822 -7.918707 8.914427 4.623258 7.118421 -23.15903 -1.957094 -92.22099 24.73873 20.44484 0 0 -22.13962 9.377983 12.45684 4.779874
2.070036 99.23155 21.68138 -1.365738 4.870872 1.867428 7.434123 -35.84231 6.151029 -0 14.96343 -0 -6.608498 -2.786823 -1.45133 -5.555027 14.4034 -16.47439 -0 10.76379 -0 3.16168 -22.6491 18.18613 -1.17764 -2.098391 4.63473 3.217169 10.62949 -9.001773 0.7674703 19.79171 7.520173 3.997595 -26.69194 8.733801 5.686356 -18.41208 11.82495 89.28736 33.84707 -24.49358 -0 0 12.0133 -8.113503 9.024758 4.730448 7.172143 -23.34367 -2.061714 -91.90646 24.64444 20.06212 0 0 -22.80586 9.27873 12.0842 4.950097
2.239414 98.60692 26.64569 -2.003756 5.437156 2.504857 8.269093 -36.4324 6.301025 -0 14.09405 -0 -6.957413 -1.454471 -1.116959 -5.015779 14.81582 -15.57918 -0 14.62368 -0 1.519508 -21.11013 16.27577 -1.169796 -2.056058 4.610858 3.219606 10.68528 -9.051696 0.7366118 19.75228 7.532556 4.030918 -26.59062 8.636787 5.672434 -18.356 11.86143 89.40568 33.81091 -24.62491 -0 0 11.8651 -8.371352 9.15231 4.863246 7.173947 -23.43301 -2.12718 -91.70132 24.57281 19.82753 0 0 -23.07504 9.128191 11.86842 5.126706
2.402955 98.29472 32.23602 -2.766831 5.648815 3.156166 9.155638 -35.41361 6.52742 -0 14.52614 -0 -7.476067 -0.7959524 -0.8569971 -4.295812 14.72775 -14.69908 -0 20.04071 -0 -0.8497647 -18.51216 14.03059 -1.178313 -2.007694 4.643816 3.14917 10.74235 -9.011873 0.7269895 19.80028 7.463508 4.019037 -26.33646 8.49161 5.692168 -18.30944 11.87024 89.31882 33.80515 -24.44882 -0 0 11.86591 -8.748625 9.321985 5.054284 7.105545 -23.40539 -2.151659 -91.59877 24.49931 19.74079 0 0 -22.87049 8.900175 11.80399 5.316202
2.602366 98.42127 38.31795 -3.536433 5.368695 3.679006 9.938257 -32.42907 6.656225 -0 15.92008 -0 -8.148409 -1.215236 -0.7569141 -3.478893 13.69002 -13.77435 -0 27.07828 -0 -3.684553 -14.90649 11.70305 -1.208578 -1.947253 4.743646 2.994883 10.80308 -8.869787 0.7365557 19.94096 7.306955 3.962314 -25.90228 8.282381 5.737172 -18.27717 11.85285 89.00026 33.83394 -23.91414 -0 0 12.02892 -9.310294 9.546112 5.345858 6.957101 -23.24942 -2.135315 -91.58537 24.40955 19.80253 0 0 -22.16907 8.570022 11.86664 5.538187
2.884851 99.0358 44.61143 -4.039611 4.492274 3.871526 10.34157 -27.53426 6.436534 -0 17.28957 -0 -8.871284 -2.936036 -0.8950655 -2.795523 11.24539 -12.6946 -0 35.57149 -0 -6.328708 -10.80296 9.740967 -1.265794 -1.871922 4.920552 2.749834 10.8612 -8.616372 0.7599673 20.16646 7.071061 3.869697 -25.28806 8.003055 5.779549 -18.27575 11.8109 88.43876 33.90453 -22.98527 -0 0 12.36529 -10.12349 9.818277 5.789286 6.731684 -22.96755 -2.081046 -91.63696 24.29775 20.01185 0 0 -21.03137 8.12382 12.00094 5.819983
3.268663 100.072 50.77468 -3.890933 2.999413 3.579248 9.99929 -21.40986 5.703482 -0 17.43052 -0 -9.456785 -5.630239 -1.212223 -2.563759 7.164173 -11.42465 -0 45.14617 -0 -7.875623 -7.170556 8.643383 -1.353159 -1.783329 5.180578 2.41916 10.90169 -8.25288 0.7884925 20.45048 6.783627 3.759078 -24.53567 7.664985 5.775271 -18.33305 11.74858 87.64769 34.02122 -21.66326 -0 0 12.87815 -11.23154 10.11147 6.428497 6.448071 -22.57872 -1.995576 -91.72148 24.16733 20.36453 0 0 -19.61926 7.569856 12.12058 6.18554
3.713106 101.3655 56.59893 -2.844289 1.076088 2.893559 8.590983 -15.03762 4.522009 -0 15.86473 -0 -9.71425 -8.323194 -1.336159 -2.917689 1.557331 -10.1809 -0 54.78401 -0 -7.819272 -4.940401 8.679936 -1.470985 -1.686312 5.518919 2.025937 10.90744 -7.795764 0.8125903 20.75271 6.48732 3.650944 -23.72264 7.298296 5.682454 -18.47657 11.67532 86.66587 34.17514 -19.99753 -0 0 13.55508 -12.62488 10.389 7.276529 6.134387 -22.10971 -1.888279 -91.80688 24.01794 20.84589 0 0 -18.14756 6.946074 12.13062 6.631019
4.132668 102.6849 62.12699 -1.167442 -0.7909322 2.184962 6.36075 -8.932213 3.222854 -0 13.21007 -0 -9.505831 -9.98121 -0.8159209 -3.448873 -5.15527 -9.192338 -0 61.79495 -0 -6.78081 -4.33041 9.672053 -1.616142 -1.586935 5.918603 1.605236 10.8688 -7.272764 0.8260133 21.03436 6.222847 3.559006 -22.93163 6.941233 5.482663 -18.71922 11.60378 85.54778 34.3366 -18.07584 -0 0 14.37061 -14.23331 10.61748 8.302319 5.816925 -21.58186 -1.76752 -91.87731 23.83714 21.43349 0 0 -16.78407 6.307258 11.96692 7.117857
4.473486 103.7315 67.51834 0.3484501 -2.25182 1.725213 4.495743 -3.0992 2.397552 -0 10.57706 -0 -8.713544 -10.39524 0.03553783 -3.273703 -12.01862 -8.091583 -0 62.70125 -0 -5.788166 -4.732064 11.26321 -1.783388 -1.492022 6.362258 1.185012 10.78398 -6.706668 0.8281356 21.27443 6.011429 3.485437 -22.21656 6.623146 5.181189 -19.06067 11.54136 84.33775 34.4658 -15.97754 -0 0 15.30879 -15.96287 10.77065 9.450557 5.512008 -21.00242 -1.635594 -91.94508 23.61291 22.11929 0 0 -15.58319 5.69644 11.61993 7.600412
4.779819 104.2202 72.8522 1.052543 -3.509354 1.433632 3.993359 2.250836 2.393942 -0 8.83503 -0 -7.41357 -10.45251 0.2997667 -1.895192 -17.72408 -6.351772 -0 56.80283 -0 -5.003006 -5.320638 13.29137 -1.968569 -1.410566 6.846475 0.7724667 10.64854 -6.100707 0.8228683 21.47178 5.853227 3.423889 -21.59713 6.358701 4.787205 -19.50375 11.48321 83.04428 34.5382 -13.72364 -0 0 16.38687 -17.74166 10.82503 10.67598 5.226134 -20.3645 -1.485256 -92.04554 23.35105 22.93044 0 0 -14.51369 5.134014 11.12268 8.052751
5.145308 104.0424 78.14638 0.9631891 -4.627155 1.107889 4.526236 6.795568 2.815228 -0 8.099859 -0 -6.013689 -11.25051 -0.124643 0.1947041 -21.7293 -4.274282 -0 46.69489 -0 -4.262006 -5.654234 15.39083 -2.168998 -1.35484 7.37379 0.3651412 10.45199 -5.449687 0.8154454 21.63275 5.740315 3.366099 -21.0821 6.156496 4.306655 -20.05396 11.41595 81.65997 34.55292 -11.30619 -0 0 17.63241 -19.508 10.75669 11.94179 4.964238 -19.66154 -1.303388 -92.21476 23.0693 23.90298 0 0 -13.53278 4.63899 10.52708 8.453804
5.638973 103.293 83.47596 0.4608173 -5.272436 0.6517895 5.218766 10.3849 3.153357 -0 8.104339 -0 -4.87466 -12.95643 -0.5972139 2.178702 -24.31621 -2.487878 -0 35.44576 -0 -3.552462 -5.576166 16.94487 -2.378645 -1.335177 7.922492 -0.02424566 10.19513 -4.773395 0.8086522 21.75937 5.666525 3.307504 -20.68208 6.021482 3.760321 -20.68762 11.33125 80.23251 34.50692 -8.80074 -0 0 19.01013 -21.16572 10.55248 13.18734 4.737734 -18.9125 -1.085216 -92.4582 22.7718 25.00423 0 0 -12.62582 4.240851 9.886054 8.762268
6.292516 102.1891 88.98808 -0.1081031 -5.302782 0.08689031 5.507515 13.03412 3.291729 -0 8.872686 -0 -4.04371 -14.88287 -0.7175397 3.502716 -25.74457 -1.365463 -0 25.37548 -0 -2.898418 -5.098389 17.69305 -2.583291 -1.349339 8.434434 -0.3620743 9.908548 -4.129976 0.8015421 21.84923 5.626105 3.249149 -20.3952 5.945887 3.196884 -21.33175 11.23698 78.90285 34.36562 -6.425016 -0 0 20.38789 -22.59195 10.2297 14.32214 4.562328 -18.16836 -0.8474586 -92.74061 22.44108 26.0982 0 0 -11.78915 3.950623 9.238974 8.938175
